<svg xmlns:dc="http://purl.org/dc/elements/1.1/" xmlns:cc="http://creativecommons.org/ns#" xmlns:rdf="http://www.w3.org/1999/02/22-rdf-syntax-ns#" xmlns:svg="http://www.w3.org/2000/svg" xmlns="http://www.w3.org/2000/svg" xmlns:sodipodi="http://sodipodi.sourceforge.net/DTD/sodipodi-0.dtd" xmlns:inkscape="http://www.inkscape.org/namespaces/inkscape" version="1.1" x="0px" y="0px" viewBox="0 0 100 125"><g transform="translate(0,-952.36218)"><path style="text-indent:0;text-transform:none;direction:ltr;block-progression:tb;baseline-shift:baseline;color:#000000;enable-background:accumulate;" d="m 19,958.36218 c -3.2894,0 -6,2.7106 -6,6 l 0,11 -4,0 c -2.1814,0 -4,1.81859 -4,4 l 0,14.00001 c 0,2.1814 1.8186,4 4,4 l 4,0 0,35.00001 a 2.0002,2.0002 0 0 0 2,2 l 2,0 0,6 c 0,3.2894 2.7106,6 6,6 l 4,0 c 3.2894,0 6,-2.7106 6,-6 l 0,-6 34,0 0,6 c 0,3.2894 2.7106,6 6,6 l 4,0 c 3.2894,0 6,-2.7106 6,-6 l 0,-6 2,0 a 2.0002,2.0002 0 0 0 2,-2 l 0,-35.00001 4,0 c 2.1814,0 4,-1.8186 4,-4 l 0,-14.00001 c 0,-2.18141 -1.8186,-4 -4,-4 l -4,0 0,-11 c 0,-3.2894 -2.7106,-6 -6,-6 l -62,0 z m 0,4 62,0 c 1.1426,0 2,0.85744 2,2 l 0,4 -66,0 0,-4 c 0,-1.14256 0.8574,-2 2,-2 z m -2,10 31,0 0,28.00002 -31,0 0,-28.00002 z m 35,0 31,0 0,28.00002 -31,0 0,-28.00002 z m -43.0000001,7 4.0000001,0 0,14.00001 -4.0000001,0 0,-14.00001 z m 78.0000001,0 4,0 0,14.00001 -4,0 0,-14.00001 z m -70,25.00002 66,0 0,26 -66,0 0,-26 z m 11,6 c -3.8423,0 -7,3.1577 -7,7 0,3.8423 3.1577,7 7,7 3.8423,0 7,-3.1577 7,-7 0,-3.8423 -3.1577,-7 -7,-7 z m 44,0 c -3.8423,0 -7,3.1577 -7,7 0,3.8423 3.1577,7 7,7 3.8423,0 7,-3.1577 7,-7 0,-3.8423 -3.1577,-7 -7,-7 z m -44,4 c 1.6805,0 3,1.3195 3,3 0,1.6805 -1.3195,3 -3,3 -1.6805,0 -3,-1.3195 -3,-3 0,-1.6805 1.3195,-3 3,-3 z m 44,0 c 1.6805,0 3,1.3195 3,3 0,1.6805 -1.3195,3 -3,3 -1.6805,0 -3,-1.3195 -3,-3 0,-1.6805 1.3195,-3 3,-3 z m -32,1 a 2.0002,2.0002 0 0 0 -2,2 l 0,8 a 2.0002,2.0002 0 0 0 2,2 l 20,0 a 2.0002,2.0002 0 0 0 2,-2 l 0,-8 a 2.0002,2.0002 0 0 0 -2,-2 l -20,0 z m 2,4 16,0 0,4 -16,0 0,-4 z m -21,15 8,0 0,6 c 0,1.1426 -0.8574,2 -2,2 l -4,0 c -1.1426,0 -2,-0.8574 -2,-2 l 0,-6 z m 50,0 8,0 0,6 c 0,1.1426 -0.8574,2 -2,2 l -4,0 c -1.1426,0 -2,-0.8574 -2,-2 l 0,-6 z" fill="#000000" fill-opacity="1" stroke="none" marker="none" visibility="visible" display="inline" overflow="visible"/></g><text x="0" y="115" fill="#000000" font-size="5px" font-weight="bold" font-family="'Helvetica Neue', Helvetica, Arial-Unicode, Arial, Sans-serif">Created by Eagle Eye</text><text x="0" y="120" fill="#000000" font-size="5px" font-weight="bold" font-family="'Helvetica Neue', Helvetica, Arial-Unicode, Arial, Sans-serif">from the Noun Project</text></svg>