<svg xmlns="http://www.w3.org/2000/svg" xmlns:xlink="http://www.w3.org/1999/xlink" version="1.1" x="0px" y="0px" viewBox="0 0 54 67.5" enable-background="new 0 0 54 54" xml:space="preserve"><path d="M42.708,46.294c-0.001-0.001-0.002-0.002-0.003-0.003l-4.312-4.312C42.07,41.774,45,38.726,45,35V13.381  c0-4.239-2.686-8.036-6.684-9.448c-7.271-2.564-15.361-2.564-22.633,0C11.686,5.345,9,9.142,9,13.381V35  c0,3.726,2.93,6.774,6.606,6.98l-4.312,4.312c-0.001,0.001-0.002,0.002-0.003,0.003l-3.999,3.999c-0.391,0.391-0.391,1.023,0,1.414  C7.488,51.902,7.744,52,8,52s0.512-0.098,0.707-0.293L12.414,48h29.172l3.707,3.707C45.488,51.902,45.744,52,46,52  s0.512-0.098,0.707-0.293c0.391-0.391,0.391-1.023,0-1.414L42.708,46.294z M11,35V13.381c0-3.393,2.149-6.432,5.35-7.562  C19.771,4.612,23.354,4,27,4s7.229,0.612,10.65,1.819c3.2,1.13,5.35,4.169,5.35,7.562V35c0,2.757-2.243,5-5,5H16  C13.243,40,11,37.757,11,35z M14.414,46l4-4h17.172l4,4H14.414z M38,28c1.654,0,3-1.346,3-3V13c0-1.654-1.346-3-3-3H16  c-1.654,0-3,1.346-3,3v12c0,1.654,1.346,3,3,3H38z M15,25V13c0-0.552,0.448-1,1-1h22c0.552,0,1,0.448,1,1v12c0,0.552-0.448,1-1,1H16  C15.448,26,15,25.552,15,25z M37,31c-1.654,0-3,1.346-3,3s1.346,3,3,3s3-1.346,3-3S38.654,31,37,31z M37,35c-0.552,0-1-0.448-1-1  s0.448-1,1-1s1,0.448,1,1S37.552,35,37,35z M20,34c0-1.654-1.346-3-3-3s-3,1.346-3,3s1.346,3,3,3S20,35.654,20,34z M16,34  c0-0.552,0.448-1,1-1s1,0.448,1,1s-0.448,1-1,1S16,34.552,16,34z M32,31c0,0.553-0.447,1-1,1h-8c-0.553,0-1-0.447-1-1s0.447-1,1-1h8  C31.553,30,32,30.447,32,31z M32,34c0,0.553-0.447,1-1,1h-8c-0.553,0-1-0.447-1-1s0.447-1,1-1h8C31.553,33,32,33.447,32,34z M32,37  c0,0.553-0.447,1-1,1h-8c-0.553,0-1-0.447-1-1s0.447-1,1-1h8C31.553,36,32,36.447,32,37z"/><text x="0" y="69" fill="#000000" font-size="5px" font-weight="bold" font-family="'Helvetica Neue', Helvetica, Arial-Unicode, Arial, Sans-serif">Created by Gofficon</text><text x="0" y="74" fill="#000000" font-size="5px" font-weight="bold" font-family="'Helvetica Neue', Helvetica, Arial-Unicode, Arial, Sans-serif">from the Noun Project</text></svg>