<svg xmlns="http://www.w3.org/2000/svg" viewBox="0 0 80 100" x="0px" y="0px"><title>45_transport_tram3</title><g data-name="Layer 3"><path d="M52,13H41V9h8V7H31V9h8v4H28a7,7,0,0,0-7,7V50a7,7,0,0,0,6,6.93L21,69h8l6-12H45l6,12h8L53,56.93A7,7,0,0,0,59,50V20A7,7,0,0,0,52,13ZM28,15H52a5,5,0,0,1,4.9,4H23.1A5,5,0,0,1,28,15Zm-5,6H39V39H23Zm4.76,46H24.24l5-10h3.53Zm28,0H52.24l-5-10h3.53ZM57,50a5,5,0,0,1-5,5H28a5,5,0,0,1-5-5V41H57Zm0-11H41V21H57Z"/><path d="M35.54,47.48A4.5,4.5,0,1,0,40,43,4.5,4.5,0,0,0,35.54,47.48Zm7,0A2.5,2.5,0,1,1,40,45,2.5,2.5,0,0,1,42.54,47.48Z"/></g><text x="0" y="95" fill="#000000" font-size="5px" font-weight="bold" font-family="'Helvetica Neue', Helvetica, Arial-Unicode, Arial, Sans-serif">Created by Weltenraser</text><text x="0" y="100" fill="#000000" font-size="5px" font-weight="bold" font-family="'Helvetica Neue', Helvetica, Arial-Unicode, Arial, Sans-serif">from the Noun Project</text></svg>